# xmcd CD database file
#
# Track frame offsets:
#	150
#	17232
#	32899
#	48837
#	67598
#	84426
#	100866
#	118804
#	133440
#	151657
#	172753
#	191417
#	209646
#	230729
#	246702
#	262640
#	279800
#
# Disc length: 3951 seconds
#
# Revision: 0
# Processed by: cddbd v1.5.2PL0 Copyright (c) Steve Scherf et al.
# Submitted via: CDex 1.70beta2
#
DISCID=e20f6d11
DTITLE=Silke Hauck - Running Scared
DYEAR=2018
DGENRE=Jazz
TTITLE0=Running Scared
TTITLE1=Big Girls Don't Cry
TTITLE2=Liar
TTITLE3=This Ain't No Love
TTITLE4=Nothing But Love
TTITLE5=Amen
TTITLE6=Comfort Me
TTITLE7=Alone
TTITLE8=Come As You Are
TTITLE9=Alive
TTITLE10=Liebe ist das nicht
TTITLE11=Bleib wie du bist
TTITLE12=Leichte Liebe
TTITLE13=Wild und frei
TTITLE14=(You Are a) Liar (remix)
TTITLE15=This Ain't No Love (blizz mix)
TTITLE16=Liar (blizz mix)
EXTD=YEAR: 2018
EXTT0=
EXTT1=
EXTT2=
EXTT3=
EXTT4=
EXTT5=
EXTT6=
EXTT7=
EXTT8=
EXTT9=
EXTT10=
EXTT11=
EXTT12=
EXTT13=
EXTT14=
EXTT15=
EXTT16=
PLAYORDER=
